<svg xmlns="http://www.w3.org/2000/svg" viewBox="0 0 64 64">
  <defs>
    <linearGradient id="bg" x1="10" y1="6" x2="54" y2="58" gradientUnits="userSpaceOnUse">
      <stop stop-color="#38bdf8" />
      <stop offset="0.55" stop-color="#0ea5e9" />
      <stop offset="1" stop-color="#22c55e" />
    </linearGradient>
    <linearGradient id="shine" x1="20" y1="12" x2="44" y2="54" gradientUnits="userSpaceOnUse">
      <stop stop-color="#f8fafc" stop-opacity="0.92" />
      <stop offset="1" stop-color="#bfdbfe" stop-opacity="0.78" />
    </linearGradient>
    <filter id="shadow" x="4" y="4" width="56" height="58" color-interpolation-filters="sRGB" filterUnits="userSpaceOnUse">
      <feDropShadow dx="0" dy="5" stdDeviation="4" flood-color="#020617" flood-opacity="0.38" />
    </filter>
  </defs>
  <rect width="64" height="64" rx="18" fill="#07111f" />
  <path
    filter="url(#shadow)"
    fill="url(#bg)"
    d="M32 7.5 51 14v15.4c0 12.2-7.6 22.8-19 27.1-11.4-4.3-19-14.9-19-27.1V14z"
  />
  <path
    fill="#07111f"
    fill-opacity="0.92"
    d="M21 29.5c0-2.3 1.9-4.2 4.2-4.2h13.6c2.3 0 4.2 1.9 4.2 4.2v12.6c0 2.3-1.9 4.2-4.2 4.2H25.2c-2.3 0-4.2-1.9-4.2-4.2z"
  />
  <path
    fill="none"
    stroke="url(#shine)"
    stroke-linecap="round"
    stroke-width="5"
    d="M24.5 25.5v-4a7.5 7.5 0 0 1 15 0v4"
  />
  <circle cx="27" cy="33" r="2.4" fill="#7dd3fc" />
  <circle cx="32" cy="33" r="2.4" fill="#dbeafe" />
  <circle cx="37" cy="33" r="2.4" fill="#7dd3fc" />
  <rect width="14" height="4.8" x="25" y="38" fill="#22c55e" rx="2.4" />
  <path fill="#f8fafc" fill-opacity="0.42" d="M17.7 16.8 32 11.9l14.3 4.9v2.5L32 14.4l-14.3 4.9z" />
</svg>
